<svg width="24" height="24" xmlns="http://www.w3.org/2000/svg">

 <g>
  <title>background</title>
  <rect fill="none" id="canvas_background" height="402" width="582" y="-1" x="-1"/>
 </g>
 <g>
  <title>Layer 1</title>
  <path stroke="null" transform="rotate(-90 12.000000953674318,12.000000953674316) " id="svg_1" d="m15.557535,23.85845c4.624795,0 8.300915,-3.676119 8.300915,-8.300915c0,-4.624795 -3.676119,-8.300915 -8.300915,-8.300915c-2.042535,0 -3.898809,0.727872 -5.336302,1.926998l-0.592922,-0.592922l0,-0.963499l-7.485646,-7.485646l-2.001113,2.001113l7.485646,7.485646l1.037614,0l0.555865,0.555865c-1.219511,1.443007 -1.964056,3.311638 -1.964056,5.37336c0,4.624795 3.676119,8.300915 8.300915,8.300915zm0,-2.37169c-3.320366,0 -5.929225,-2.608859 -5.929225,-5.929225c0,-3.320366 2.608859,-5.929225 5.929225,-5.929225c3.320366,0 5.929225,2.608859 5.929225,5.929225c0,3.320366 -2.608859,5.929225 -5.929225,5.929225z"/>
 </g>
</svg>